name not saved
datacolumns 19
datarows 45
range 22.365 22.409
endheader
time	ground_force1_vx	ground_force1_vy	ground_force1_vz	ground_force1_px	ground_force1_py	ground_force1_pz	ground_force2_vx	ground_force2_vy	ground_force2_vz	ground_force2_px	ground_force2_py	ground_force2_pz	ground_torque1_x	ground_torque1_y	ground_torque1_z	ground_torque2_x	ground_torque2_y	ground_torque2_z
22.365	-0.3601830578	516.1917719	-37.98266712	0.07113497278	0	0.2071182513	0.5287666294	343.7404919	31.19711637	0.06419996414	0	-0.2916886259	0	-3.069472194	0	0	-0.231965395	0
22.366	-0.4260614256	516.152347	-38.01115603	0.07129587498	0	0.2071559735	0.5124817028	343.7314215	31.2433587	0.06427477637	0	-0.2916825245	0	-3.060327923	0	0	-0.2418121108	0
22.367	-0.4891905585	516.1139567	-38.0393913	0.07145364109	0	0.2071931934	0.4962391603	343.7235122	31.29019903	0.06434981446	0	-0.2916764315	0	-3.051641959	0	0	-0.2515522698	0
22.368	-0.5495570084	516.0765502	-38.06738744	0.07160826722	0	0.2072299011	0.4800435777	343.7167843	31.33763323	0.06442507573	0	-0.2916703487	0	-3.043410379	0	0	-0.2611841072	0
22.369	-0.6071508523	516.0400767	-38.09515901	0.07175975327	0	0.2072660876	0.463898498	343.7112588	31.38565671	0.06450055767	0	-0.2916642778	0	-3.035628764	0	0	-0.2707060974	0
22.37	-0.6619656645	516.0044848	-38.12272062	0.07190810295	0	0.2073017448	0.447806437	343.7069572	31.43426443	0.06457625794	0	-0.2916582211	0	-3.028292222	0	0	-0.2801169517	0
22.371	-0.7139984818	515.9697229	-38.15008688	0.07205332364	0	0.2073368653	0.4317688912	343.7039014	31.48345087	0.06465217431	0	-0.2916521808	0	-3.021395395	0	0	-0.2894156151	0
22.372	-0.7632497608	515.9357393	-38.17727236	0.07219542633	0	0.2073714426	0.4157863493	343.7021142	31.53321009	0.06472830471	0	-0.2916461594	0	-3.014932484	0	0	-0.2986012629	0
22.373	-0.8097233294	515.9024819	-38.20429152	0.07233442555	0	0.207405471	0.3998583052	343.7016185	31.58353571	0.06480464715	0	-0.2916401596	0	-3.008897259	0	0	-0.3076732964	0
22.374	-0.8534263306	515.8698986	-38.23115872	0.07247033926	0	0.2074389457	0.3839832743	343.7024377	31.63442093	0.06488119973	0	-0.2916341841	0	-3.003283077	0	0	-0.3166313372	0
22.375	-0.8943691604	515.8379369	-38.25788811	0.07260318875	0	0.2074718627	0.3681588116	343.7045957	31.68585851	0.06495796063	0	-0.2916282359	0	-2.998082898	0	0	-0.3254752222	0
22.376	-0.9325653994	515.8065445	-38.28449365	0.07273299858	0	0.2075042186	0.3523815335	343.7081165	31.73784084	0.06503492804	0	-0.2916223182	0	-2.993289305	0	0	-0.3342049969	0
22.377	-0.968031739	515.7756687	-38.31098903	0.07285979641	0	0.2075360111	0.3366471408	343.7130245	31.7903599	0.06511210022	0	-0.2916164342	0	-2.988894515	0	0	-0.3428209087	0
22.378	-1.000787902	515.7452569	-38.33738763	0.07298361296	0	0.2075672386	0.320950445	343.7193442	31.84340729	0.06518947538	0	-0.2916105875	0	-2.9848904	0	0	-0.3513233997	0
22.379	-1.030856558	515.7152562	-38.36370251	0.07310448183	0	0.2075979002	0.3052853973	343.7271004	31.89697424	0.06526705177	0	-0.2916047814	0	-2.981268506	0	0	-0.3597130984	0
22.38	-1.058263233	515.6856139	-38.38994635	0.07322243945	0	0.207627996	0.2896451189	343.7363178	31.95105165	0.06534482758	0	-0.2915990199	0	-2.978020061	0	0	-0.3679908122	0
22.381	-1.083036218	515.656277	-38.4161314	0.07333752491	0	0.2076575268	0.2740219354	343.7470212	32.00563005	0.06542280096	0	-0.2915933067	0	-2.975136003	0	0	-0.3761575186	0
22.382	-1.105206469	515.6271926	-38.44226946	0.07344977988	0	0.207686494	0.2584074115	343.7592353	32.06069967	0.06550096998	0	-0.2915876457	0	-2.972606988	0	0	-0.3842143569	0
22.383	-1.124807507	515.5983078	-38.46837187	0.07355924844	0	0.2077149	0.2427923897	343.7729847	32.11625044	0.06557933264	0	-0.2915820411	0	-2.970423412	0	0	-0.392162619	0
22.384	-1.141875314	515.5695694	-38.49444941	0.07366597701	0	0.207742748	0.2271670298	343.788294	32.17227196	0.06565788685	0	-0.2915764969	0	-2.968575426	0	0	-0.4000037414	0
22.385	-1.156448223	515.5409244	-38.52051233	0.0737700142	0	0.2077700417	0.2115208511	343.8051875	32.2287536	0.0657366304	0	-0.2915710174	0	-2.967052952	0	0	-0.4077392957	0
22.386	-1.168566811	515.5123197	-38.54657029	0.07387141066	0	0.2077967857	0.1958427762	343.823689	32.28568445	0.06581556094	0	-0.2915656071	0	-2.965845705	0	0	-0.4153709805	0
22.387	-1.178273787	515.4837023	-38.57263234	0.07397021901	0	0.2078229854	0.1801211762	343.8438223	32.34305335	0.06589467602	0	-0.2915602701	0	-2.964943204	0	0	-0.4229006129	0
22.388	-1.185613879	515.4550189	-38.59870688	0.07406649366	0	0.2078486466	0.1643439187	343.8656106	32.40084893	0.06597397302	0	-0.2915550112	0	-2.964334794	0	0	-0.4303301198	0
22.389	-1.190633717	515.4262164	-38.62480166	0.07416029072	0	0.2078737762	0.1484984153	343.8890767	32.45905961	0.06605344916	0	-0.2915498346	0	-2.964009662	0	0	-0.4376615299	0
22.39	-1.193381721	515.3972415	-38.65092374	0.07425166787	0	0.2078983814	0.1325716725	343.9142429	32.51767362	0.0661331015	0	-0.2915447451	0	-2.963956856	0	0	-0.4448969665	0
22.391	-1.193907983	515.3680411	-38.67707946	0.07434068421	0	0.2079224704	0.1165503419	343.9411308	32.57667901	0.06621292692	0	-0.2915397473	0	-2.964165301	0	0	-0.4520386388	0
22.392	-1.192264155	515.3385619	-38.70327444	0.07442740017	0	0.2079460517	0.1004207727	343.9697615	32.63606369	0.06629292211	0	-0.2915348456	0	-2.964623817	0	0	-0.4590888357	0
22.393	-1.18850333	515.3087505	-38.72951356	0.07451187739	0	0.2079691348	0.08416906411	344.0001553	32.69581542	0.06637308359	0	-0.2915300449	0	-2.965321143	0	0	-0.4660499185	0
22.394	-1.18267993	515.2785538	-38.75580095	0.07459417857	0	0.2079917294	0.06778111858	344.0323319	32.75592185	0.06645340765	0	-0.2915253496	0	-2.966245945	0	0	-0.4729243143	0
22.395	-1.174849593	515.2479181	-38.78213994	0.07467436737	0	0.2080138461	0.05124269576	344.06631	32.81637052	0.06653389041	0	-0.2915207645	0	-2.967386846	0	0	-0.4797145098	0
22.396	-1.16506906	515.2167904	-38.80853313	0.07475250831	0	0.2080354959	0.03453946629	344.1021076	32.87714889	0.06661452774	0	-0.2915162942	0	-2.968732436	0	0	-0.4864230456	0
22.397	-1.153396065	515.185117	-38.8349823	0.07482866665	0	0.2080566904	0.01765706575	344.1397418	32.93824437	0.06669531534	0	-0.2915119432	0	-2.970271292	0	0	-0.4930525105	0
22.398	-1.139889229	515.1528445	-38.86148845	0.07490290825	0	0.2080774416	0.0005811485044	344.1792287	32.99964429	0.06677624866	0	-0.2915077162	0	-2.971992001	0	0	-0.4996055359	0
22.399	-1.124607952	515.1199196	-38.88805179	0.0749752995	0	0.2080977621	-0.01670255891	344.2205833	33.06133597	0.06685732294	0	-0.2915036175	0	-2.973883173	0	0	-0.5060847913	0
22.4	-1.107612307	515.0862887	-38.91467174	0.07504590722	0	0.2081176649	-0.03420820487	344.2638196	33.12330673	0.0669385332	0	-0.2914996518	0	-2.97593346	0	0	-0.5124929789	0
22.401	-1.088962947	515.0518984	-38.94134693	0.0751147985	0	0.2081371635	-0.0519497606	344.3089507	33.18554386	0.06701987423	0	-0.2914958233	0	-2.978131576	0	0	-0.5188328291	0
22.402	-1.068720997	515.0166952	-38.9680752	0.07518204067	0	0.2081562718	-0.06994096904	344.3559883	33.24803469	0.06710134062	0	-0.2914921365	0	-2.980466312	0	0	-0.5251070962	0
22.403	-1.046947965	514.9806257	-38.99485362	0.07524770117	0	0.208175004	-0.08819529488	344.4049431	33.3107666	0.06718292669	0	-0.2914885955	0	-2.982926552	0	0	-0.5313185536	0
22.404	-1.023705645	514.9436365	-39.02167849	0.07531184744	0	0.2081933746	-0.1067258759	344.4558244	33.37372699	0.06726462657	0	-0.2914852045	0	-2.985501293	0	0	-0.5374699903	0
22.405	-0.9990560303	514.9056743	-39.04854535	0.07537454688	0	0.2082113987	-0.1255454762	344.5086405	33.43690335	0.06734643416	0	-0.2914819675	0	-2.988179655	0	0	-0.5435642061	0
22.406	-0.9730612258	514.8666857	-39.07544899	0.0754358667	0	0.2082290915	-0.1446664402	344.5633981	33.50028326	0.06742834314	0	-0.2914788886	0	-2.990950901	0	0	-0.549604008	0
22.407	-0.945783363	514.8266177	-39.10238347	0.07549587388	0	0.2082464685	-0.1641006501	344.6201028	33.5638544	0.06751034697	0	-0.2914759715	0	-2.993804447	0	0	-0.5555922058	0
22.408	-0.9172845206	514.7854172	-39.12934216	0.07555463506	0	0.2082635454	-0.1838594835	344.6787588	33.62760454	0.0675924389	0	-0.29147322	0	-2.996729877	0	0	-0.5615316088	0
22.409	-0.8876266464	514.7430314	-39.15631769	0.07561221649	0	0.2082803384	-0.203953775	344.739369	33.69152162	0.06767461197	0	-0.2914706376	0	-2.999716954	0	0	-0.5674250216	0
